<?xml version="1.0" encoding="UTF-8" standalone="no"?>
<svg width="160px" height="24px" viewBox="0 0 160 24" version="1.1" xmlns="http://www.w3.org/2000/svg" xmlns:xlink="http://www.w3.org/1999/xlink" xmlns:sketch="http://www.bohemiancoding.com/sketch/ns">
    <!-- Generator: Sketch 3.3.2 (12043) - http://www.bohemiancoding.com/sketch -->
    <title>Indiegogo Logo</title>
    <desc>Created with Sketch.</desc>
    <defs></defs>
    <g id="Page-1" stroke="none" stroke-width="1" fill="none" fill-rule="evenodd" sketch:type="MSPage">
        <g id="Indiegogo-Logo" sketch:type="MSLayerGroup" fill="#EB1478">
            <path d="M6.18807143,1.10008175 L6.18807143,23.1825633 L0.142735715,23.1825633 L0.142735715,1.10008175 L6.18807143,1.10008175 Z" id="I" sketch:type="MSShapeGroup"></path>
            <path d="M21.6385201,11.3224613 L15.5331184,1.10008175 L9.1835355,1.10008175 L9.1835355,23.1825633 L14.9220124,23.1825633 L14.9220124,11.7091576 L15.0138524,11.7108573 L21.9432026,23.1825633 L27.4975643,23.1825633 L27.4975643,1.10008175 L21.7299249,1.10008175 L21.7299249,11.3224613 L21.6385201,11.3224613" id="N" sketch:type="MSShapeGroup"></path>
            <path d="M42.5414795,12.1557705 C42.5414795,17.729721 40.9236155,18.0849716 38.6650478,18.0849716 L36.5575155,18.0849716 L36.5575155,6.46496127 L38.4191255,6.46496127 C40.9849873,6.46496127 42.5414795,6.61326566 42.5414795,12.1557705 L42.5414795,12.1557705 L42.5414795,12.1557705 Z M30.5147914,1.10008175 L30.5147914,23.1825633 L38.1148783,23.1825633 C45.2884097,23.1825633 48.6760437,21.4241576 48.6760437,12.1268745 C48.6760437,3.00806662 45.2279085,1.10008175 38.0239088,1.10008175 L30.5147914,1.10008175 L30.5147914,1.10008175 Z" id="D" sketch:type="MSShapeGroup"></path>
            <path d="M50.8410303,1.10008175 L56.884625,1.10008175 L56.884625,23.1825633 L50.8410303,23.1825633 L50.8410303,1.10008175 L50.8410303,1.10008175 Z" id="I" sketch:type="MSShapeGroup"></path>
            <path d="M74.9200869,6.49385726 L74.9200869,1.10008175 L59.9018521,1.10008175 L59.9018521,23.1825633 L74.9200869,23.1825633 L74.9200869,17.938367 L65.8244443,17.938367 L65.8244443,14.6289268 L71.7983973,14.6289268 L72.5278942,9.38558043 L65.8244443,9.38558043 L65.8244443,6.49385726 L74.9200869,6.49385726" id="E" sketch:type="MSShapeGroup"></path>
            <path d="M85.3101949,14.6607974 L89.2096954,14.6607974 L89.2096954,15.0466438 C89.2096954,17.4866547 89.287607,18.5630302 86.3108592,18.5630302 C83.5325902,18.5630302 82.5854629,17.3115791 82.5854629,12.3350956 C82.5854629,7.14954114 84.1724234,6.52360312 86.5537347,6.52360312 C88.3230694,6.52360312 89.5761849,6.97021606 90.6138464,7.53793717 L93.8495743,2.61967059 C92.1389998,1.54626975 89.6362509,0.831944009 86.8283842,0.831944009 C79.0150195,0.831944009 76.5114,4.4979096 76.5114,12.1557705 C76.5114,18.8311679 78.3425417,23.450701 85.7598192,23.450701 C87.0738712,23.450701 88.2029374,23.3627382 89.1757451,23.1825633 L94.7344593,23.1825633 L94.7344593,9.86193924 L85.9774495,9.86193924 L85.3101949,14.6607974" id="G" sketch:type="MSShapeGroup"></path>
            <path d="M106.819908,18.2354007 C103.49321,18.2354007 103.034881,15.9993614 103.034881,12.3648415 C103.034881,8.75879253 103.49321,6.52360312 106.819908,6.52360312 C110.117443,6.52360312 110.574902,8.75879253 110.574902,12.3648415 C110.574902,15.9993614 110.117443,18.2354007 106.819908,18.2354007 L106.819908,18.2354007 L106.819908,18.2354007 Z M106.819908,0.831944009 C98.3958722,0.831944009 96.8998813,6.22486963 96.8998813,12.1557705 C96.8998813,18.0569255 98.3958722,23.450701 106.819908,23.450701 C115.214781,23.450701 116.710772,18.0569255 116.710772,12.1557705 C116.710772,6.22486963 115.244378,0.831944009 106.819908,0.831944009 L106.819908,0.831944009 L106.819908,0.831944009 Z" id="O" sketch:type="MSShapeGroup"></path>
            <path d="M127.674988,14.6607974 L131.574489,14.6607974 L131.574489,15.0466438 C131.574489,17.4866547 131.6524,18.5630302 128.675653,18.5630302 C125.897384,18.5630302 124.950256,17.3115791 124.950256,12.3350956 C124.950256,7.14954114 126.537217,6.52360312 128.918528,6.52360312 C130.687863,6.52360312 131.940978,6.97021606 132.97864,7.53793717 L136.214368,2.61967059 C134.503793,1.54626975 132.001044,0.831944009 129.193178,0.831944009 C121.379813,0.831944009 118.876193,4.4979096 118.876193,12.1557705 C118.876193,18.8311679 120.707335,23.450701 128.124613,23.450701 C129.4391,23.450701 130.567731,23.3627382 131.540539,23.1825633 L137.099253,23.1825633 L137.099253,9.86193924 L128.342243,9.86193924 L127.674988,14.6607974" id="G" sketch:type="MSShapeGroup"></path>
            <path d="M149.186442,18.2354007 C145.858874,18.2354007 145.399674,15.9993614 145.399674,12.3648415 C145.399674,8.75879253 145.858874,6.52360312 149.186442,6.52360312 C152.480495,6.52360312 152.939695,8.75879253 152.939695,12.3648415 C152.939695,15.9993614 152.480495,18.2354007 149.186442,18.2354007 L149.186442,18.2354007 L149.186442,18.2354007 Z M149.186442,0.831944009 C140.760666,0.831944009 139.263804,6.22486963 139.263804,12.1557705 C139.263804,18.0569255 140.760666,23.450701 149.186442,23.450701 C157.579574,23.450701 159.074694,18.0569255 159.074694,12.1557705 C159.074694,6.22486963 157.610042,0.831944009 149.186442,0.831944009 L149.186442,0.831944009 L149.186442,0.831944009 Z" id="O" sketch:type="MSShapeGroup"></path>
        </g>
    </g>
</svg>